<mxfile host="app.diagrams.net" agent="Mozilla/5.0 (Macintosh; Intel Mac OS X 10_15_7) AppleWebKit/537.36 (KHTML, like Gecko) Chrome/131.0.0.0 Safari/537.36" version="24.8.6">
  <diagram name="Page-1" id="zKouTdjYlXtntgD_SwBa">
    <mxGraphModel dx="2049" dy="2256" grid="1" gridSize="10" guides="1" tooltips="1" connect="1" arrows="1" fold="1" page="1" pageScale="1" pageWidth="827" pageHeight="1169" math="0" shadow="0">
      <root>
        <mxCell id="0" />
        <mxCell id="1" parent="0" />
        <mxCell id="D2rMsJWVZoLbAkBkSzX1-1" value="" style="rounded=0;whiteSpace=wrap;html=1;" vertex="1" parent="1">
          <mxGeometry x="507.5" y="30" width="260" height="410" as="geometry" />
        </mxCell>
        <mxCell id="D2rMsJWVZoLbAkBkSzX1-2" value="&lt;b&gt;N Servers&lt;/b&gt;&lt;div&gt;&lt;br&gt;&lt;/div&gt;" style="text;html=1;align=center;verticalAlign=middle;resizable=0;points=[];autosize=1;strokeColor=none;fillColor=none;" vertex="1" parent="1">
          <mxGeometry x="380" y="30" width="80" height="40" as="geometry" />
        </mxCell>
        <mxCell id="D2rMsJWVZoLbAkBkSzX1-21" value="Log accumulator" style="text;html=1;align=center;verticalAlign=middle;resizable=0;points=[];autosize=1;strokeColor=none;fillColor=none;" vertex="1" parent="1">
          <mxGeometry x="570" y="280" width="110" height="30" as="geometry" />
        </mxCell>
        <mxCell id="D2rMsJWVZoLbAkBkSzX1-30" value="" style="rounded=0;whiteSpace=wrap;html=1;fillColor=#cce5ff;strokeColor=#36393d;" vertex="1" parent="1">
          <mxGeometry x="1241" y="-10" width="200" height="470" as="geometry" />
        </mxCell>
        <mxCell id="D2rMsJWVZoLbAkBkSzX1-22" value="" style="rounded=0;whiteSpace=wrap;html=1;fillColor=#e1d5e7;strokeColor=#9673a6;" vertex="1" parent="1">
          <mxGeometry x="900" y="175.25" width="178" height="162.5" as="geometry" />
        </mxCell>
        <mxCell id="D2rMsJWVZoLbAkBkSzX1-23" value="" style="sketch=0;points=[[0,0,0],[0.25,0,0],[0.5,0,0],[0.75,0,0],[1,0,0],[0,1,0],[0.25,1,0],[0.5,1,0],[0.75,1,0],[1,1,0],[0,0.25,0],[0,0.5,0],[0,0.75,0],[1,0.25,0],[1,0.5,0],[1,0.75,0]];outlineConnect=0;fontColor=#232F3E;fillColor=#8C4FFF;strokeColor=#ffffff;dashed=0;verticalLabelPosition=bottom;verticalAlign=top;align=center;html=1;fontSize=12;fontStyle=0;aspect=fixed;shape=mxgraph.aws4.resourceIcon;resIcon=mxgraph.aws4.managed_streaming_for_kafka;" vertex="1" parent="1">
          <mxGeometry x="940" y="217" width="87.14" height="90.25" as="geometry" />
        </mxCell>
        <mxCell id="D2rMsJWVZoLbAkBkSzX1-26" value="Filter" style="rounded=0;whiteSpace=wrap;html=1;fillColor=#ffcc99;strokeColor=#36393d;" vertex="1" parent="1">
          <mxGeometry x="1258" y="138.5" width="162" height="40" as="geometry" />
        </mxCell>
        <mxCell id="D2rMsJWVZoLbAkBkSzX1-28" value="Blob Storage like S3 / HDFS" style="rounded=0;whiteSpace=wrap;html=1;fillColor=#d5e8d4;strokeColor=#82b366;gradientColor=#97d077;" vertex="1" parent="1">
          <mxGeometry x="1265.5" y="221.5" width="156.88" height="70" as="geometry" />
        </mxCell>
        <mxCell id="D2rMsJWVZoLbAkBkSzX1-29" style="edgeStyle=orthogonalEdgeStyle;rounded=0;orthogonalLoop=1;jettySize=auto;html=1;entryX=0.465;entryY=0.014;entryDx=0;entryDy=0;entryPerimeter=0;" edge="1" parent="1" source="D2rMsJWVZoLbAkBkSzX1-26" target="D2rMsJWVZoLbAkBkSzX1-28">
          <mxGeometry relative="1" as="geometry" />
        </mxCell>
        <mxCell id="D2rMsJWVZoLbAkBkSzX1-37" value="" style="rounded=0;whiteSpace=wrap;html=1;fillColor=#cce5ff;strokeColor=#36393d;" vertex="1" parent="1">
          <mxGeometry x="1550" y="-10" width="200" height="470" as="geometry" />
        </mxCell>
        <mxCell id="D2rMsJWVZoLbAkBkSzX1-57" style="edgeStyle=orthogonalEdgeStyle;rounded=0;orthogonalLoop=1;jettySize=auto;html=1;entryX=0.5;entryY=0;entryDx=0;entryDy=0;" edge="1" parent="1" source="D2rMsJWVZoLbAkBkSzX1-32" target="D2rMsJWVZoLbAkBkSzX1-34">
          <mxGeometry relative="1" as="geometry" />
        </mxCell>
        <mxCell id="D2rMsJWVZoLbAkBkSzX1-32" value="Log Indexer" style="rounded=0;whiteSpace=wrap;html=1;fillColor=#ffcc99;strokeColor=#36393d;" vertex="1" parent="1">
          <mxGeometry x="1580" y="137.5" width="150" height="40" as="geometry" />
        </mxCell>
        <mxCell id="D2rMsJWVZoLbAkBkSzX1-34" value="Log Visualiser" style="rounded=0;whiteSpace=wrap;html=1;fillColor=#d5e8d4;strokeColor=#82b366;gradientColor=#97d077;" vertex="1" parent="1">
          <mxGeometry x="1585" y="217" width="140" height="74.5" as="geometry" />
        </mxCell>
        <mxCell id="D2rMsJWVZoLbAkBkSzX1-41" value="" style="group" vertex="1" connectable="0" parent="1">
          <mxGeometry x="530" y="100" width="215" height="200" as="geometry" />
        </mxCell>
        <mxCell id="D2rMsJWVZoLbAkBkSzX1-9" value="" style="group" vertex="1" connectable="0" parent="D2rMsJWVZoLbAkBkSzX1-41">
          <mxGeometry x="75" width="55" height="88" as="geometry" />
        </mxCell>
        <mxCell id="D2rMsJWVZoLbAkBkSzX1-10" value="" style="outlineConnect=0;dashed=0;verticalLabelPosition=bottom;verticalAlign=top;align=center;html=1;shape=mxgraph.aws3.ec2;fillColor=#F58534;gradientColor=none;" vertex="1" parent="D2rMsJWVZoLbAkBkSzX1-9">
          <mxGeometry x="5" width="50" height="53" as="geometry" />
        </mxCell>
        <mxCell id="D2rMsJWVZoLbAkBkSzX1-11" value="App 2" style="text;html=1;align=center;verticalAlign=middle;resizable=0;points=[];autosize=1;strokeColor=none;fillColor=none;" vertex="1" parent="D2rMsJWVZoLbAkBkSzX1-9">
          <mxGeometry y="58" width="50" height="30" as="geometry" />
        </mxCell>
        <mxCell id="D2rMsJWVZoLbAkBkSzX1-12" value="" style="group" vertex="1" connectable="0" parent="D2rMsJWVZoLbAkBkSzX1-41">
          <mxGeometry x="160" width="55" height="88" as="geometry" />
        </mxCell>
        <mxCell id="D2rMsJWVZoLbAkBkSzX1-13" value="" style="outlineConnect=0;dashed=0;verticalLabelPosition=bottom;verticalAlign=top;align=center;html=1;shape=mxgraph.aws3.ec2;fillColor=#F58534;gradientColor=none;" vertex="1" parent="D2rMsJWVZoLbAkBkSzX1-12">
          <mxGeometry x="5" width="50" height="53" as="geometry" />
        </mxCell>
        <mxCell id="D2rMsJWVZoLbAkBkSzX1-14" value="App 3" style="text;html=1;align=center;verticalAlign=middle;resizable=0;points=[];autosize=1;strokeColor=none;fillColor=none;" vertex="1" parent="D2rMsJWVZoLbAkBkSzX1-12">
          <mxGeometry y="58" width="50" height="30" as="geometry" />
        </mxCell>
        <mxCell id="D2rMsJWVZoLbAkBkSzX1-7" value="" style="group" vertex="1" connectable="0" parent="D2rMsJWVZoLbAkBkSzX1-41">
          <mxGeometry x="-10" y="-2" width="55" height="90" as="geometry" />
        </mxCell>
        <mxCell id="D2rMsJWVZoLbAkBkSzX1-3" value="" style="outlineConnect=0;dashed=0;verticalLabelPosition=bottom;verticalAlign=top;align=center;html=1;shape=mxgraph.aws3.ec2;fillColor=#F58534;gradientColor=none;" vertex="1" parent="D2rMsJWVZoLbAkBkSzX1-7">
          <mxGeometry x="5" width="50" height="54.20454545454545" as="geometry" />
        </mxCell>
        <mxCell id="D2rMsJWVZoLbAkBkSzX1-6" value="App 1" style="text;html=1;align=center;verticalAlign=middle;resizable=0;points=[];autosize=1;strokeColor=none;fillColor=none;" vertex="1" parent="D2rMsJWVZoLbAkBkSzX1-7">
          <mxGeometry y="59.31818181818182" width="50" height="30" as="geometry" />
        </mxCell>
        <mxCell id="D2rMsJWVZoLbAkBkSzX1-61" value="" style="edgeStyle=orthogonalEdgeStyle;rounded=0;orthogonalLoop=1;jettySize=auto;html=1;" edge="1" parent="D2rMsJWVZoLbAkBkSzX1-41" source="D2rMsJWVZoLbAkBkSzX1-11" target="D2rMsJWVZoLbAkBkSzX1-14">
          <mxGeometry relative="1" as="geometry" />
        </mxCell>
        <mxCell id="D2rMsJWVZoLbAkBkSzX1-54" style="edgeStyle=orthogonalEdgeStyle;rounded=0;orthogonalLoop=1;jettySize=auto;html=1;entryX=0;entryY=0.547;entryDx=0;entryDy=0;entryPerimeter=0;" edge="1" parent="1" source="D2rMsJWVZoLbAkBkSzX1-16" target="D2rMsJWVZoLbAkBkSzX1-22">
          <mxGeometry relative="1" as="geometry" />
        </mxCell>
        <mxCell id="D2rMsJWVZoLbAkBkSzX1-56" style="edgeStyle=orthogonalEdgeStyle;rounded=0;orthogonalLoop=1;jettySize=auto;html=1;entryX=-0.02;entryY=0.362;entryDx=0;entryDy=0;entryPerimeter=0;" edge="1" parent="1" source="D2rMsJWVZoLbAkBkSzX1-28" target="D2rMsJWVZoLbAkBkSzX1-37">
          <mxGeometry relative="1" as="geometry" />
        </mxCell>
        <mxCell id="D2rMsJWVZoLbAkBkSzX1-58" value="Indexer and Visualiser" style="text;html=1;align=center;verticalAlign=middle;resizable=0;points=[];autosize=1;strokeColor=none;fillColor=none;" vertex="1" parent="1">
          <mxGeometry x="1580" y="468" width="140" height="30" as="geometry" />
        </mxCell>
        <mxCell id="D2rMsJWVZoLbAkBkSzX1-59" value="Storage layer" style="text;html=1;align=center;verticalAlign=middle;resizable=0;points=[];autosize=1;strokeColor=none;fillColor=none;" vertex="1" parent="1">
          <mxGeometry x="1295" y="468" width="90" height="30" as="geometry" />
        </mxCell>
        <mxCell id="D2rMsJWVZoLbAkBkSzX1-60" value="Pub Sub layer for N server to submit the logs here" style="text;html=1;align=center;verticalAlign=middle;resizable=0;points=[];autosize=1;strokeColor=none;fillColor=none;" vertex="1" parent="1">
          <mxGeometry x="860" y="350" width="290" height="30" as="geometry" />
        </mxCell>
        <mxCell id="D2rMsJWVZoLbAkBkSzX1-16" value="" style="verticalLabelPosition=bottom;sketch=0;html=1;fillColor=#A153A0;strokeColor=#ffffff;verticalAlign=top;align=center;points=[[0,0.5,0],[0.125,0.25,0],[0.25,0,0],[0.5,0,0],[0.75,0,0],[0.875,0.25,0],[1,0.5,0],[0.875,0.75,0],[0.75,1,0],[0.5,1,0],[0.125,0.75,0]];pointerEvents=1;shape=mxgraph.cisco_safe.compositeIcon;bgIcon=mxgraph.cisco_safe.design.blank_device;resIcon=mxgraph.cisco_safe.design.log_collector;" vertex="1" parent="1">
          <mxGeometry x="558.75" y="280" width="142.5" height="90" as="geometry" />
        </mxCell>
        <mxCell id="D2rMsJWVZoLbAkBkSzX1-19" style="edgeStyle=orthogonalEdgeStyle;rounded=0;orthogonalLoop=1;jettySize=auto;html=1;entryX=0.875;entryY=0.25;entryDx=0;entryDy=0;entryPerimeter=0;exitX=0.76;exitY=1;exitDx=0;exitDy=0;exitPerimeter=0;" edge="1" parent="1" source="D2rMsJWVZoLbAkBkSzX1-14" target="D2rMsJWVZoLbAkBkSzX1-16">
          <mxGeometry relative="1" as="geometry" />
        </mxCell>
        <mxCell id="D2rMsJWVZoLbAkBkSzX1-50" style="edgeStyle=orthogonalEdgeStyle;rounded=0;orthogonalLoop=1;jettySize=auto;html=1;entryX=0.125;entryY=0.25;entryDx=0;entryDy=0;entryPerimeter=0;" edge="1" parent="1" source="D2rMsJWVZoLbAkBkSzX1-6" target="D2rMsJWVZoLbAkBkSzX1-16">
          <mxGeometry relative="1" as="geometry" />
        </mxCell>
        <mxCell id="D2rMsJWVZoLbAkBkSzX1-51" style="edgeStyle=orthogonalEdgeStyle;rounded=0;orthogonalLoop=1;jettySize=auto;html=1;entryX=0.5;entryY=0;entryDx=0;entryDy=0;entryPerimeter=0;" edge="1" parent="1" source="D2rMsJWVZoLbAkBkSzX1-11" target="D2rMsJWVZoLbAkBkSzX1-16">
          <mxGeometry relative="1" as="geometry" />
        </mxCell>
        <mxCell id="D2rMsJWVZoLbAkBkSzX1-62" style="edgeStyle=orthogonalEdgeStyle;rounded=0;orthogonalLoop=1;jettySize=auto;html=1;entryX=0.011;entryY=0.359;entryDx=0;entryDy=0;entryPerimeter=0;" edge="1" parent="1" source="D2rMsJWVZoLbAkBkSzX1-22" target="D2rMsJWVZoLbAkBkSzX1-30">
          <mxGeometry relative="1" as="geometry" />
        </mxCell>
      </root>
    </mxGraphModel>
  </diagram>
</mxfile>
